<?xml version="1.0" encoding="utf-8"?>
<!-- Generator: Adobe Illustrator 16.0.0, SVG Export Plug-In . SVG Version: 6.00 Build 0)  -->
<!DOCTYPE svg PUBLIC "-//W3C//DTD SVG 1.1 Tiny//EN" "http://www.w3.org/Graphics/SVG/1.1/DTD/svg11-tiny.dtd">
<svg version="1.1" baseProfile="tiny" id="Layer_1" xmlns="http://www.w3.org/2000/svg" xmlns:xlink="http://www.w3.org/1999/xlink"
	 x="0px" y="0px" width="96px" height="32px" viewBox="0 0 96 32" xml:space="preserve">
<g>
	<g>
		<path fill="#333333" d="M11.325,12.834h-1.321c-0.113,0-0.207,0.093-0.207,0.208v3.934l-2.298-4.038
			c-0.038-0.065-0.105-0.105-0.182-0.105H5.836c-0.118,0-0.21,0.093-0.21,0.208v6.773c0,0.114,0.093,0.209,0.21,0.209h1.315
			c0.118,0,0.21-0.095,0.21-0.209v-4.024l2.368,4.125c0.037,0.066,0.106,0.108,0.181,0.108h1.414c0.115,0,0.209-0.095,0.209-0.209
			v-6.773C11.534,12.927,11.44,12.834,11.325,12.834z"/>
		<path fill="#333333" d="M17.824,18.387h-3.541v-1.323h3.083c0.115,0,0.209-0.093,0.209-0.207V15.68c0-0.116-0.094-0.21-0.209-0.21
			h-3.083v-1.02h3.375c0.116,0,0.208-0.093,0.208-0.208v-1.199c0-0.116-0.092-0.208-0.208-0.208h-4.964
			c-0.116,0-0.208,0.093-0.208,0.208v6.773c0,0.114,0.092,0.209,0.208,0.209h5.13c0.115,0,0.21-0.095,0.21-0.209v-1.219
			C18.034,18.48,17.939,18.387,17.824,18.387z"/>
		<path fill="#333333" d="M27.12,12.917c-0.04-0.053-0.103-0.083-0.166-0.083h-1.439c-0.1,0-0.184,0.067-0.204,0.162l-0.904,3.921
			L23.595,13c-0.02-0.097-0.104-0.167-0.205-0.167h-1.492c-0.1,0-0.185,0.071-0.204,0.168l-0.753,3.842l-0.887-3.849
			c-0.023-0.094-0.107-0.162-0.205-0.162h-1.501c-0.064,0-0.127,0.03-0.168,0.083c-0.039,0.052-0.053,0.119-0.033,0.182l1.919,6.771
			c0.026,0.091,0.107,0.154,0.202,0.154h1.312c0.099,0,0.186-0.071,0.206-0.168l0.815-3.965l0.035-0.186l0.855,4.15
			c0.019,0.097,0.104,0.168,0.202,0.168h1.354c0.095,0,0.177-0.063,0.201-0.154l1.905-6.771
			C27.172,13.036,27.159,12.969,27.12,12.917z"/>
	</g>
	<g>
		<path fill="#333333" d="M16.019,31.9c-8.75,0-15.87-7.12-15.87-15.872c0-8.75,7.121-15.87,15.87-15.87
			c8.75,0,15.871,7.119,15.871,15.87C31.89,24.78,24.77,31.9,16.019,31.9z M16.019,2.939c-7.217,0-13.089,5.873-13.089,13.09
			c0,7.219,5.872,13.09,13.089,13.09c7.218,0,13.09-5.871,13.09-13.09C29.109,8.812,23.237,2.939,16.019,2.939z"/>
	</g>
</g>
<g>
	<g>
		<path fill="#333333" d="M57.468,0.046H34.99c-1.706,0-3.085,1.382-3.085,3.086v25.722c0,1.704,1.379,3.086,3.085,3.086h25.923
			c1.707,0,3.086-1.382,3.086-3.086V6.28L57.468,0.046z"/>
	</g>
	<path fill="#FFFFFF" d="M56.852,10.941c0,0.852-0.692,1.543-1.544,1.543H39.585c-0.852,0-1.544-0.691-1.544-1.543V2.649
		c0-0.853,0.692-1.543,1.544-1.543h15.723c0.852,0,1.544,0.69,1.544,1.543V10.941z"/>
	<path fill="#FFFFFF" d="M60.328,29.454c0,0.854-0.69,1.544-1.543,1.544H36.931c-0.851,0-1.542-0.69-1.542-1.544V17.638
		c0-0.852,0.691-1.543,1.542-1.543h21.854c0.853,0,1.543,0.691,1.543,1.543V29.454z"/>
	<path fill="#333333" d="M55.119,10.209c0,0.426-0.346,0.771-0.771,0.771h-2.056c-0.425,0-0.771-0.345-0.771-0.771V3.38
		c0-0.426,0.346-0.771,0.771-0.771h2.056c0.425,0,0.771,0.345,0.771,0.771V10.209z"/>
</g>
<g>
	<path fill="#FFFFFF" stroke="#333333" stroke-width="1.4556" stroke-miterlimit="10" d="M70.082,16.524v7.349v2.676v1.757
		c0,1.619,1.293,2.931,2.888,2.931h14.154c1.597,0,2.893-1.312,2.893-2.931v-1.757v-2.676v-7.349H70.082z"/>
	<path fill="#333333" d="M85.78,21.844c0,0.603-0.485,1.089-1.088,1.089H75.52c-0.602,0-1.087-0.486-1.087-1.089l0,0
		c0-0.601,0.485-1.086,1.087-1.086h9.173C85.295,20.758,85.78,21.243,85.78,21.844L85.78,21.844z"/>
	<path fill="#333333" d="M82.842,25.46c0,0.601-0.36,1.089-0.807,1.089h-6.796c-0.446,0-0.807-0.488-0.807-1.089l0,0
		c0-0.599,0.36-1.085,0.807-1.085h6.796C82.481,24.375,82.842,24.861,82.842,25.46L82.842,25.46z"/>
	<path fill="#FFFFFF" stroke="#333333" stroke-width="1.4663" stroke-miterlimit="10" d="M90.017,3.669
		c0-1.619-1.314-2.933-2.935-2.933H72.721c-1.62,0-2.933,1.314-2.933,2.933v6.739h20.229V3.669z"/>
	<path fill="#333333" d="M92.081,10.409h-2.064H69.788h-1.656c-1.617,0-2.931,1.312-2.931,2.933v7.599
		c0,1.618,1.313,2.933,2.931,2.933h1.01v-7.349h0.646h20.229h0.938v7.349h1.126c1.617,0,2.932-1.314,2.932-2.933v-7.599
		C95.013,11.721,93.698,10.409,92.081,10.409z"/>
	<circle fill="#FFFFFF" cx="90.016" cy="13.466" r="1.823"/>
</g>
</svg>
