<?xml version="1.0" encoding="utf-8"?>
<!-- Generator: Adobe Illustrator 16.0.0, SVG Export Plug-In . SVG Version: 6.00 Build 0)  -->
<!DOCTYPE svg PUBLIC "-//W3C//DTD SVG 1.1//EN" "http://www.w3.org/Graphics/SVG/1.1/DTD/svg11.dtd">
<svg version="1.1" id="Layer_1" xmlns="http://www.w3.org/2000/svg" xmlns:xlink="http://www.w3.org/1999/xlink" x="0px" y="0px"
	 width="192.016px" height="64px" viewBox="0 0 192.016 64" enable-background="new 0 0 192.016 64" xml:space="preserve">
<g>
	<g>
		<path fill="#5FBB46" d="M75.709,45.093h-1.214c-0.104,0-0.19,0.085-0.19,0.191V48.9l-2.112-3.711
			c-0.034-0.06-0.097-0.097-0.167-0.097h-1.36c-0.108,0-0.193,0.085-0.193,0.191v6.225c0,0.105,0.085,0.192,0.193,0.192h1.209
			c0.107,0,0.192-0.087,0.192-0.192v-3.698l2.177,3.791c0.033,0.062,0.098,0.101,0.167,0.101h1.3c0.104,0,0.191-0.087,0.191-0.192
			v-6.225C75.901,45.178,75.815,45.093,75.709,45.093z"/>
		<path fill="#5FBB46" d="M81.683,50.195h-3.254V48.98h2.833c0.106,0,0.192-0.086,0.192-0.19v-1.082
			c0-0.106-0.086-0.192-0.192-0.192h-2.833v-0.938h3.103c0.105,0,0.19-0.086,0.19-0.191v-1.103c0-0.106-0.085-0.191-0.19-0.191
			h-4.562c-0.107,0-0.191,0.085-0.191,0.191v6.225c0,0.104,0.084,0.192,0.191,0.192h4.715c0.106,0,0.193-0.088,0.193-0.192v-1.12
			C81.876,50.282,81.789,50.195,81.683,50.195z"/>
		<path fill="#5FBB46" d="M90.226,45.168c-0.036-0.048-0.094-0.076-0.151-0.076h-1.322c-0.092,0-0.169,0.062-0.188,0.148
			l-0.831,3.604l-0.746-3.599c-0.019-0.089-0.097-0.153-0.188-0.153h-1.371c-0.092,0-0.17,0.065-0.188,0.155l-0.691,3.53
			l-0.815-3.537c-0.021-0.086-0.099-0.148-0.188-0.148h-1.379c-0.061,0-0.117,0.027-0.154,0.076
			c-0.036,0.048-0.049,0.109-0.03,0.167l1.764,6.224c0.023,0.082,0.1,0.142,0.187,0.142h1.206c0.091,0,0.171-0.065,0.189-0.154
			l0.749-3.644l0.031-0.17l0.786,3.813c0.019,0.089,0.097,0.154,0.188,0.154h1.244c0.087,0,0.162-0.06,0.186-0.142l1.751-6.225
			C90.273,45.277,90.262,45.217,90.226,45.168z"/>
	</g>
	<g>
		<path fill="#5FBB46" d="M80.023,62.615c-8.041,0-14.585-6.545-14.585-14.586c0-8.043,6.544-14.584,14.585-14.584
			c8.042,0,14.586,6.541,14.586,14.584C94.609,56.07,88.065,62.615,80.023,62.615z M80.023,35.999
			c-6.633,0-12.028,5.397-12.028,12.03c0,6.634,5.396,12.031,12.028,12.031c6.635,0,12.031-5.396,12.031-12.031
			C92.055,41.396,86.657,35.999,80.023,35.999z"/>
	</g>
</g>
<g>
	<g>
		<path fill="#5FBB46" d="M120.635,33.447h-20.413c-1.551,0-2.803,1.256-2.803,2.804v23.358c0,1.55,1.252,2.804,2.803,2.804h23.542
			c1.55,0,2.802-1.254,2.802-2.804v-20.5L120.635,33.447z"/>
	</g>
	<path fill="#FFFFFF" d="M120.075,43.342c0,0.774-0.631,1.402-1.402,1.402h-14.28c-0.771,0-1.4-0.627-1.4-1.402v-7.531
		c0-0.773,0.629-1.4,1.4-1.4h14.28c0.771,0,1.402,0.627,1.402,1.4V43.342z"/>
	<path fill="#FFFFFF" d="M123.232,60.156c0,0.773-0.628,1.4-1.4,1.4h-19.849c-0.773,0-1.4-0.627-1.4-1.4V49.423
		c0-0.772,0.627-1.399,1.4-1.399h19.849c0.772,0,1.4,0.627,1.4,1.399V60.156z"/>
	<path fill="#5FBB46" d="M118.501,42.678c0,0.387-0.313,0.7-0.699,0.7h-1.866c-0.387,0-0.701-0.313-0.701-0.7v-6.203
		c0-0.387,0.314-0.701,0.701-0.701h1.866c0.386,0,0.699,0.313,0.699,0.701V42.678z"/>
</g>
<g>
	<path fill="#FFFFFF" d="M134.867,48.418v6.667v2.429v1.592c0,1.471,1.173,2.66,2.618,2.66h12.841c1.447,0,2.624-1.189,2.624-2.66
		v-1.592v-2.429v-6.667H134.867z"/>
	<g>
		<path fill="#5FBB46" d="M149.107,53.244c0,0.547-0.439,0.988-0.985,0.988H139.8c-0.546,0-0.986-0.441-0.986-0.988l0,0
			c0-0.544,0.44-0.984,0.986-0.984h8.321C148.667,52.26,149.107,52.7,149.107,53.244L149.107,53.244z"/>
	</g>
	<g>
		<path fill="#5FBB46" d="M146.441,56.525c0,0.543-0.325,0.986-0.73,0.986h-6.165c-0.404,0-0.731-0.443-0.731-0.986l0,0
			c0-0.545,0.327-0.985,0.731-0.985h6.165C146.115,55.54,146.441,55.98,146.441,56.525L146.441,56.525z"/>
	</g>
	<path fill="#FFFFFF" d="M152.95,36.758c0-1.469-1.192-2.66-2.662-2.66h-13.027c-1.47,0-2.66,1.191-2.66,2.66v6.114h18.351
		L152.95,36.758L152.95,36.758z"/>
	<path fill="#5FBB46" d="M154.823,42.872h-1.208v-6.114c0-1.833-1.492-3.324-3.327-3.324h-13.027c-1.834,0-3.325,1.491-3.325,3.324
		v6.114h-0.838c-1.467,0-2.658,1.19-2.658,2.66v6.894c0,1.469,1.191,2.659,2.658,2.659h0.917v-6.667h0.192v10.688
		c0,1.83,1.472,3.318,3.278,3.318h12.841c1.812,0,3.283-1.488,3.283-3.318V48.418h0.191v6.667h1.021c1.467,0,2.658-1.19,2.658-2.659
		v-6.894C157.482,44.062,156.29,42.872,154.823,42.872z M135.266,36.758c0-1.1,0.896-1.996,1.995-1.996h13.027
		c1.102,0,1.997,0.896,1.997,1.996v5.449h-17.021L135.266,36.758L135.266,36.758z M152.29,59.105c0,1.104-0.881,2-1.964,2h-12.841
		c-1.08,0-1.96-0.896-1.96-2V49.079h16.765V59.105L152.29,59.105z"/>
	<g>
		<circle fill="#FFFFFF" cx="152.949" cy="45.645" r="1.654"/>
	</g>
</g>
<g>
	<path fill="#5FBB46" d="M44.792,62.425c-0.351,0-0.704-0.089-1.028-0.276c-0.984-0.567-1.321-1.826-0.753-2.812l6.578-11.387
		l-6.578-11.388c-0.568-0.983-0.231-2.242,0.753-2.812c0.983-0.567,2.243-0.231,2.812,0.753l7.172,12.416
		c0.368,0.637,0.368,1.422,0,2.059l-7.172,12.418C46.194,62.057,45.502,62.425,44.792,62.425z"/>
</g>
<g>
	<path fill="#5FBB46" d="M19.545,62.424c-0.711,0-1.402-0.369-1.784-1.029l-7.173-12.416c-0.368-0.638-0.368-1.422,0-2.06
		l7.173-12.417c0.568-0.984,1.828-1.32,2.812-0.753c0.983,0.569,1.32,1.828,0.752,2.812l-6.579,11.389l6.579,11.386
		c0.568,0.983,0.231,2.243-0.752,2.812C20.249,62.334,19.895,62.424,19.545,62.424z"/>
</g>
<g>
	<path fill="#CCCCCB" d="M44.709,30.556c-0.354,0-0.71-0.09-1.037-0.279c-0.993-0.573-1.333-1.843-0.759-2.836l6.636-11.488
		L42.913,4.464c-0.574-0.993-0.234-2.262,0.759-2.836c0.992-0.573,2.263-0.233,2.837,0.76l7.236,12.526
		c0.371,0.643,0.371,1.435,0,2.078l-7.236,12.527C46.125,30.184,45.427,30.556,44.709,30.556z"/>
</g>
<g>
	<path fill="#CCCCCB" d="M19.627,30.556c-0.717,0-1.415-0.373-1.8-1.039l-7.236-12.526c-0.371-0.643-0.371-1.435,0-2.078
		l7.236-12.526c0.573-0.993,1.844-1.333,2.837-0.76c0.993,0.574,1.333,1.844,0.759,2.836l-6.637,11.489l6.637,11.487
		c0.574,0.993,0.234,2.263-0.759,2.836C20.337,30.465,19.979,30.556,19.627,30.556z"/>
</g>
<g>
	<path fill="#5FBB46" d="M174.99,33.372c-8.025,0-14.555,6.529-14.555,14.555c0,8.027,6.529,14.557,14.555,14.557
		c8.026,0,14.556-6.529,14.556-14.557C189.546,39.901,183.017,33.372,174.99,33.372z M174.99,59.934
		c-6.62,0-12.005-5.385-12.005-12.007c0-6.62,5.385-12.005,12.005-12.005c6.621,0,12.006,5.385,12.006,12.005
		C186.996,54.549,181.612,59.934,174.99,59.934z"/>
	<path fill="#5FBB46" d="M180.714,42.351c-0.499-0.497-1.306-0.495-1.803,0.005l-3.673,3.694l-3.673-3.694
		c-0.498-0.5-1.304-0.502-1.804-0.005c-0.498,0.496-0.501,1.303-0.005,1.803l3.683,3.705l-3.683,3.705
		c-0.496,0.5-0.493,1.307,0.005,1.805c0.249,0.247,0.574,0.369,0.899,0.369c0.327,0,0.654-0.124,0.904-0.374l3.673-3.695
		l3.673,3.695c0.249,0.25,0.576,0.374,0.904,0.374c0.325,0,0.649-0.122,0.898-0.369c0.5-0.498,0.503-1.305,0.005-1.805l-3.683-3.705
		l3.683-3.705C181.217,43.653,181.214,42.847,180.714,42.351z"/>
</g>
</svg>
